<mxfile host="app.diagrams.net" agent="Mozilla/5.0 (Macintosh; Intel Mac OS X 10_15_7) AppleWebKit/537.36 (KHTML, like Gecko) Chrome/135.0.0.0 Safari/537.36" version="26.2.13">
  <diagram name="第 1 页" id="wVfNhc_KFFdCu8hFlN2U">
    <mxGraphModel dx="989" dy="587" grid="1" gridSize="10" guides="1" tooltips="1" connect="1" arrows="1" fold="1" page="1" pageScale="1" pageWidth="4800" pageHeight="4800" math="0" shadow="0">
      <root>
        <mxCell id="0" />
        <mxCell id="1" parent="0" />
        <mxCell id="18vfQR5F3HWxHLzgiY15-1" value="" style="rounded=1;whiteSpace=wrap;html=1;" parent="1" vertex="1">
          <mxGeometry x="989" y="1486" width="120" height="50" as="geometry" />
        </mxCell>
        <mxCell id="18vfQR5F3HWxHLzgiY15-2" style="edgeStyle=orthogonalEdgeStyle;rounded=0;orthogonalLoop=1;jettySize=auto;html=1;exitX=1;exitY=0.5;exitDx=0;exitDy=0;" parent="1" source="18vfQR5F3HWxHLzgiY15-3" target="18vfQR5F3HWxHLzgiY15-19" edge="1">
          <mxGeometry relative="1" as="geometry" />
        </mxCell>
        <mxCell id="18vfQR5F3HWxHLzgiY15-3" value="" style="rounded=1;whiteSpace=wrap;html=1;" parent="1" vertex="1">
          <mxGeometry x="880" y="1317" width="231" height="45" as="geometry" />
        </mxCell>
        <mxCell id="18vfQR5F3HWxHLzgiY15-4" style="edgeStyle=orthogonalEdgeStyle;rounded=0;orthogonalLoop=1;jettySize=auto;html=1;exitX=1;exitY=0.5;exitDx=0;exitDy=0;" parent="1" source="18vfQR5F3HWxHLzgiY15-5" target="18vfQR5F3HWxHLzgiY15-17" edge="1">
          <mxGeometry relative="1" as="geometry" />
        </mxCell>
        <mxCell id="18vfQR5F3HWxHLzgiY15-5" value="" style="rounded=1;whiteSpace=wrap;html=1;" parent="1" vertex="1">
          <mxGeometry x="881" y="1390" width="230" height="70" as="geometry" />
        </mxCell>
        <mxCell id="18vfQR5F3HWxHLzgiY15-6" style="rounded=0;orthogonalLoop=1;jettySize=auto;html=1;exitX=1;exitY=0.5;exitDx=0;exitDy=0;entryX=0;entryY=0.5;entryDx=0;entryDy=0;" parent="1" source="18vfQR5F3HWxHLzgiY15-7" target="18vfQR5F3HWxHLzgiY15-16" edge="1">
          <mxGeometry relative="1" as="geometry" />
        </mxCell>
        <mxCell id="18vfQR5F3HWxHLzgiY15-7" value="" style="rounded=1;whiteSpace=wrap;html=1;" parent="1" vertex="1">
          <mxGeometry x="881" y="1220" width="230" height="70" as="geometry" />
        </mxCell>
        <mxCell id="18vfQR5F3HWxHLzgiY15-8" style="edgeStyle=orthogonalEdgeStyle;rounded=0;orthogonalLoop=1;jettySize=auto;html=1;exitX=1;exitY=0.5;exitDx=0;exitDy=0;entryX=0;entryY=0.5;entryDx=0;entryDy=0;" parent="1" source="18vfQR5F3HWxHLzgiY15-9" target="18vfQR5F3HWxHLzgiY15-18" edge="1">
          <mxGeometry relative="1" as="geometry" />
        </mxCell>
        <mxCell id="18vfQR5F3HWxHLzgiY15-9" value="" style="rounded=1;whiteSpace=wrap;html=1;" parent="1" vertex="1">
          <mxGeometry x="770" y="1115" width="340" height="65" as="geometry" />
        </mxCell>
        <mxCell id="18vfQR5F3HWxHLzgiY15-10" style="rounded=0;orthogonalLoop=1;jettySize=auto;html=1;exitX=1;exitY=0.5;exitDx=0;exitDy=0;entryX=0;entryY=0.5;entryDx=0;entryDy=0;" parent="1" source="18vfQR5F3HWxHLzgiY15-11" target="18vfQR5F3HWxHLzgiY15-16" edge="1">
          <mxGeometry relative="1" as="geometry" />
        </mxCell>
        <mxCell id="18vfQR5F3HWxHLzgiY15-11" value="" style="rounded=1;whiteSpace=wrap;html=1;" parent="1" vertex="1">
          <mxGeometry x="980" y="835" width="120" height="50" as="geometry" />
        </mxCell>
        <mxCell id="18vfQR5F3HWxHLzgiY15-12" style="rounded=0;orthogonalLoop=1;jettySize=auto;html=1;exitX=1;exitY=0.5;exitDx=0;exitDy=0;entryX=0;entryY=0.5;entryDx=0;entryDy=0;" parent="1" source="18vfQR5F3HWxHLzgiY15-13" target="18vfQR5F3HWxHLzgiY15-16" edge="1">
          <mxGeometry relative="1" as="geometry" />
        </mxCell>
        <mxCell id="18vfQR5F3HWxHLzgiY15-13" value="" style="rounded=1;whiteSpace=wrap;html=1;" parent="1" vertex="1">
          <mxGeometry x="770" y="925" width="340" height="130" as="geometry" />
        </mxCell>
        <mxCell id="18vfQR5F3HWxHLzgiY15-14" style="edgeStyle=orthogonalEdgeStyle;rounded=0;orthogonalLoop=1;jettySize=auto;html=1;exitX=1;exitY=0.5;exitDx=0;exitDy=0;" parent="1" source="18vfQR5F3HWxHLzgiY15-15" target="18vfQR5F3HWxHLzgiY15-21" edge="1">
          <mxGeometry relative="1" as="geometry" />
        </mxCell>
        <mxCell id="18vfQR5F3HWxHLzgiY15-15" value="" style="rounded=1;whiteSpace=wrap;html=1;" parent="1" vertex="1">
          <mxGeometry x="880" y="730" width="230" height="70" as="geometry" />
        </mxCell>
        <mxCell id="18vfQR5F3HWxHLzgiY15-16" value="希望学-续报中心" style="rounded=0;whiteSpace=wrap;html=1;fillColor=#d5e8d4;strokeColor=#82b366;" parent="1" vertex="1">
          <mxGeometry x="1371" y="915" width="119" height="60" as="geometry" />
        </mxCell>
        <mxCell id="18vfQR5F3HWxHLzgiY15-17" value="优课-续报中心" style="rounded=0;whiteSpace=wrap;html=1;fillColor=#d5e8d4;strokeColor=#82b366;" parent="1" vertex="1">
          <mxGeometry x="1380" y="1395" width="119" height="60" as="geometry" />
        </mxCell>
        <mxCell id="18vfQR5F3HWxHLzgiY15-18" value="希望学-入口年级" style="rounded=0;whiteSpace=wrap;html=1;fillColor=#d5e8d4;strokeColor=#82b366;" parent="1" vertex="1">
          <mxGeometry x="1371" y="1117" width="119" height="60" as="geometry" />
        </mxCell>
        <mxCell id="18vfQR5F3HWxHLzgiY15-19" value="优课-入口年级" style="rounded=0;whiteSpace=wrap;html=1;fillColor=#d5e8d4;strokeColor=#82b366;" parent="1" vertex="1">
          <mxGeometry x="1380" y="1310" width="119" height="60" as="geometry" />
        </mxCell>
        <mxCell id="18vfQR5F3HWxHLzgiY15-20" style="edgeStyle=orthogonalEdgeStyle;rounded=0;orthogonalLoop=1;jettySize=auto;html=1;exitX=0.5;exitY=1;exitDx=0;exitDy=0;" parent="1" source="18vfQR5F3HWxHLzgiY15-19" target="18vfQR5F3HWxHLzgiY15-19" edge="1">
          <mxGeometry relative="1" as="geometry" />
        </mxCell>
        <mxCell id="18vfQR5F3HWxHLzgiY15-21" value="素养-续报中心" style="rounded=0;whiteSpace=wrap;html=1;fillColor=#d5e8d4;strokeColor=#82b366;" parent="1" vertex="1">
          <mxGeometry x="1371" y="735" width="119" height="60" as="geometry" />
        </mxCell>
        <mxCell id="18vfQR5F3HWxHLzgiY15-22" value="&lt;font style=&quot;font-size: 18px;&quot;&gt;S1&lt;/font&gt;" style="rounded=1;whiteSpace=wrap;html=1;fillColor=#60a917;fontColor=#ffffff;strokeColor=#2D7600;" parent="1" vertex="1">
          <mxGeometry x="900" y="750" width="80" height="30" as="geometry" />
        </mxCell>
        <mxCell id="18vfQR5F3HWxHLzgiY15-23" value="&lt;font style=&quot;font-size: 18px;&quot;&gt;S2&lt;/font&gt;" style="rounded=1;whiteSpace=wrap;html=1;fillColor=#60a917;fontColor=#ffffff;strokeColor=#2D7600;" parent="1" vertex="1">
          <mxGeometry x="1009" y="750" width="80" height="30" as="geometry" />
        </mxCell>
        <mxCell id="18vfQR5F3HWxHLzgiY15-24" value="&lt;font style=&quot;font-size: 18px;&quot;&gt;S3&lt;/font&gt;" style="rounded=1;whiteSpace=wrap;html=1;fillColor=#60a917;fontColor=#ffffff;strokeColor=#2D7600;" parent="1" vertex="1">
          <mxGeometry x="999" y="845" width="80" height="30" as="geometry" />
        </mxCell>
        <mxCell id="18vfQR5F3HWxHLzgiY15-25" value="&lt;span style=&quot;font-size: 18px;&quot;&gt;一年级&lt;/span&gt;" style="rounded=1;whiteSpace=wrap;html=1;fillColor=#60a917;fontColor=#ffffff;strokeColor=#2D7600;" parent="1" vertex="1">
          <mxGeometry x="790" y="942" width="80" height="30" as="geometry" />
        </mxCell>
        <mxCell id="18vfQR5F3HWxHLzgiY15-26" value="&lt;span style=&quot;font-size: 18px;&quot;&gt;二年级&lt;/span&gt;" style="rounded=1;whiteSpace=wrap;html=1;fillColor=#60a917;fontColor=#ffffff;strokeColor=#2D7600;" parent="1" vertex="1">
          <mxGeometry x="889" y="945" width="80" height="30" as="geometry" />
        </mxCell>
        <mxCell id="18vfQR5F3HWxHLzgiY15-27" value="&lt;span style=&quot;font-size: 18px;&quot;&gt;三年级&lt;/span&gt;" style="rounded=1;whiteSpace=wrap;html=1;fillColor=#60a917;fontColor=#ffffff;strokeColor=#2D7600;" parent="1" vertex="1">
          <mxGeometry x="1000" y="945" width="80" height="30" as="geometry" />
        </mxCell>
        <mxCell id="18vfQR5F3HWxHLzgiY15-28" value="&lt;span style=&quot;font-size: 18px;&quot;&gt;四年级&lt;/span&gt;" style="rounded=1;whiteSpace=wrap;html=1;fillColor=#60a917;fontColor=#ffffff;strokeColor=#2D7600;" parent="1" vertex="1">
          <mxGeometry x="790" y="1005" width="80" height="30" as="geometry" />
        </mxCell>
        <mxCell id="18vfQR5F3HWxHLzgiY15-29" value="&lt;span style=&quot;font-size: 18px;&quot;&gt;五年级&lt;/span&gt;" style="rounded=1;whiteSpace=wrap;html=1;fillColor=#f0a30a;fontColor=#000000;strokeColor=#BD7000;" parent="1" vertex="1">
          <mxGeometry x="890" y="1005" width="80" height="30" as="geometry" />
        </mxCell>
        <mxCell id="18vfQR5F3HWxHLzgiY15-30" value="&lt;span style=&quot;font-size: 18px;&quot;&gt;六年级&lt;/span&gt;" style="rounded=1;whiteSpace=wrap;html=1;fillColor=#60a917;fontColor=#ffffff;strokeColor=#2D7600;" parent="1" vertex="1">
          <mxGeometry x="900" y="1130" width="79" height="30" as="geometry" />
        </mxCell>
        <mxCell id="18vfQR5F3HWxHLzgiY15-31" value="&lt;span style=&quot;font-size: 18px;&quot;&gt;预初&lt;/span&gt;" style="rounded=1;whiteSpace=wrap;html=1;fillColor=#60a917;fontColor=#ffffff;strokeColor=#2D7600;" parent="1" vertex="1">
          <mxGeometry x="1013" y="1130" width="79" height="30" as="geometry" />
        </mxCell>
        <mxCell id="18vfQR5F3HWxHLzgiY15-32" value="&lt;span style=&quot;font-size: 18px;&quot;&gt;初一&lt;/span&gt;" style="rounded=1;whiteSpace=wrap;html=1;fillColor=#60a917;fontColor=#ffffff;strokeColor=#2D7600;" parent="1" vertex="1">
          <mxGeometry x="900" y="1240" width="79" height="30" as="geometry" />
        </mxCell>
        <mxCell id="18vfQR5F3HWxHLzgiY15-33" style="edgeStyle=orthogonalEdgeStyle;rounded=0;orthogonalLoop=1;jettySize=auto;html=1;exitX=0.5;exitY=1;exitDx=0;exitDy=0;" parent="1" source="18vfQR5F3HWxHLzgiY15-32" target="18vfQR5F3HWxHLzgiY15-32" edge="1">
          <mxGeometry relative="1" as="geometry" />
        </mxCell>
        <mxCell id="18vfQR5F3HWxHLzgiY15-34" value="&lt;span style=&quot;font-size: 18px;&quot;&gt;初二&lt;/span&gt;" style="rounded=1;whiteSpace=wrap;html=1;fillColor=#60a917;fontColor=#ffffff;strokeColor=#2D7600;" parent="1" vertex="1">
          <mxGeometry x="1014" y="1240" width="79" height="30" as="geometry" />
        </mxCell>
        <mxCell id="18vfQR5F3HWxHLzgiY15-35" value="&lt;span style=&quot;font-size: 18px;&quot;&gt;初三&lt;/span&gt;" style="rounded=1;whiteSpace=wrap;html=1;fillColor=#60a917;fontColor=#ffffff;strokeColor=#2D7600;" parent="1" vertex="1">
          <mxGeometry x="1015.5" y="1325" width="79" height="30" as="geometry" />
        </mxCell>
        <mxCell id="18vfQR5F3HWxHLzgiY15-36" value="&lt;span style=&quot;font-size: 18px;&quot;&gt;高一&lt;/span&gt;" style="rounded=1;whiteSpace=wrap;html=1;fillColor=#60a917;fontColor=#ffffff;strokeColor=#2D7600;" parent="1" vertex="1">
          <mxGeometry x="895" y="1410" width="79" height="30" as="geometry" />
        </mxCell>
        <mxCell id="18vfQR5F3HWxHLzgiY15-37" value="&lt;span style=&quot;font-size: 18px;&quot;&gt;高二&lt;/span&gt;" style="rounded=1;whiteSpace=wrap;html=1;fillColor=#60a917;fontColor=#ffffff;strokeColor=#2D7600;" parent="1" vertex="1">
          <mxGeometry x="1018" y="1410" width="79" height="30" as="geometry" />
        </mxCell>
        <mxCell id="18vfQR5F3HWxHLzgiY15-38" value="&lt;span style=&quot;font-size: 18px;&quot;&gt;高三&lt;/span&gt;" style="rounded=1;whiteSpace=wrap;html=1;fillColor=#60a917;fontColor=#ffffff;strokeColor=#2D7600;" parent="1" vertex="1">
          <mxGeometry x="1010" y="1496" width="79" height="30" as="geometry" />
        </mxCell>
        <mxCell id="18vfQR5F3HWxHLzgiY15-39" value="&lt;span style=&quot;font-size: 18px;&quot;&gt;五年级&lt;/span&gt;" style="rounded=1;whiteSpace=wrap;html=1;fillColor=#f0a30a;fontColor=#000000;strokeColor=#BD7000;" parent="1" vertex="1">
          <mxGeometry x="790" y="1130" width="80" height="30" as="geometry" />
        </mxCell>
        <mxCell id="4yBZv8nZBLHElxnF87w4-1" value="&lt;span style=&quot;font-size: 18px;&quot;&gt;初三&lt;/span&gt;" style="rounded=1;whiteSpace=wrap;html=1;fillColor=#60a917;fontColor=#ffffff;strokeColor=#2D7600;" vertex="1" parent="1">
          <mxGeometry x="901" y="1324.5" width="79" height="30" as="geometry" />
        </mxCell>
      </root>
    </mxGraphModel>
  </diagram>
</mxfile>
